ply
format ascii 1.0
comment Created by Blender 2.69 (sub 0) - www.blender.org, source file: ''
element vertex 42
property float x
property float y
property float z
element face 80
property list uchar uint vertex_indices
end_header
6.418739 -2.461370 2.984598
6.844061 -2.770382 3.133944
6.256283 -2.961366 3.133943
7.142346 -2.987096 3.537378
7.269387 -2.461370 3.458862
5.893009 -2.461370 3.133946
6.256283 -1.961375 3.133943
6.844061 -2.152359 3.133944
7.369797 -2.770383 3.984598
6.142351 -3.312020 3.537378
6.681608 -3.270382 3.458860
6.418739 -3.461370 3.984598
5.524312 -2.461370 3.537382
5.730549 -2.961367 3.458861
5.467681 -2.770383 3.984598
6.142351 -1.610721 3.537378
5.730549 -1.961374 3.458861
5.830953 -1.652354 3.984598
7.142346 -1.935645 3.537378
6.681608 -1.652359 3.458860
7.006525 -1.652354 3.984598
7.006525 -3.270387 3.984598
5.830953 -3.270387 3.984598
5.467681 -2.152358 3.984598
6.418739 -1.461370 3.984598
7.369797 -2.152358 3.984598
6.695127 -3.312020 4.431818
7.106928 -2.961367 4.510334
6.581194 -2.961366 4.835252
5.695131 -2.987096 4.431817
6.155870 -3.270382 4.510335
5.993416 -2.770382 4.835252
5.695131 -1.935645 4.431817
5.568091 -2.461370 4.510334
5.993416 -2.152359 4.835252
6.695127 -1.610721 4.431818
6.155870 -1.652359 4.510335
6.581194 -1.961375 4.835252
7.313165 -2.461370 4.431813
7.106928 -1.961374 4.510334
6.944468 -2.461370 4.835249
6.418739 -2.461370 4.984598
3 0 1 2
3 3 1 4
3 0 2 5
3 0 5 6
3 0 6 7
3 3 4 8
3 9 10 11
3 12 13 14
3 15 16 17
3 18 19 20
3 3 8 21
3 9 11 22
3 12 14 23
3 15 17 24
3 18 20 25
3 26 27 28
3 29 30 31
3 32 33 34
3 35 36 37
3 38 39 40
3 2 10 9
3 2 1 10
3 1 3 10
3 4 7 18
3 4 1 7
3 1 0 7
3 5 13 12
3 5 2 13
3 2 9 13
3 6 16 15
3 6 5 16
3 5 12 16
3 7 19 18
3 7 6 19
3 6 15 19
3 8 25 38
3 8 4 25
3 4 18 25
3 11 21 26
3 11 10 21
3 10 3 21
3 14 22 29
3 14 13 22
3 13 9 22
3 17 23 32
3 17 16 23
3 16 12 23
3 20 24 35
3 20 19 24
3 19 15 24
3 21 27 26
3 21 8 27
3 8 38 27
3 22 30 29
3 22 11 30
3 11 26 30
3 23 33 32
3 23 14 33
3 14 29 33
3 24 36 35
3 24 17 36
3 17 32 36
3 25 39 38
3 25 20 39
3 20 35 39
3 28 40 41
3 28 27 40
3 27 38 40
3 31 28 41
3 31 30 28
3 30 26 28
3 34 31 41
3 34 33 31
3 33 29 31
3 37 34 41
3 37 36 34
3 36 32 34
3 40 37 41
3 40 39 37
3 39 35 37
